<?xml version="1.0" standalone="no"?>
<!DOCTYPE svg PUBLIC "-//W3C//DTD SVG 20010904//EN"
 "http://www.w3.org/TR/2001/REC-SVG-20010904/DTD/svg10.dtd">
<svg version="1.0" xmlns="http://www.w3.org/2000/svg"
 width="362.000000pt" height="362.000000pt" viewBox="0 0 362.000000 362.000000"
 preserveAspectRatio="xMidYMid meet">
<metadata>
Created by potrace 1.11, written by Peter Selinger 2001-2013
</metadata>
<g transform="translate(0.000000,362.000000) scale(0.100000,-0.100000)"
fill="#000000" stroke="none">
<path d="M1936 3283 l-69 -102 -65 50 c-75 58 -178 113 -197 105 -15 -5 -14
-12 26 -123 32 -92 25 -99 -62 -62 -84 36 -236 58 -281 40 -16 -6 -28 -14 -28
-18 1 -5 55 -50 120 -102 66 -52 120 -98 120 -102 0 -13 -15 -19 -102 -40
-260 -64 -321 -81 -403 -109 -115 -40 -259 -108 -338 -162 -223 -149 -420
-374 -545 -623 -108 -215 -131 -536 -56 -794 37 -128 88 -218 194 -341 31 -36
77 -92 102 -126 66 -87 167 -164 329 -253 158 -86 415 -158 699 -196 67 -8 93
-14 230 -47 111 -28 143 -31 285 -32 143 -1 256 6 326 19 13 3 41 7 64 10 22
3 47 8 55 10 8 2 31 6 51 9 20 3 49 10 65 16 16 6 31 11 34 10 16 -3 360 90
423 115 20 8 57 30 81 47 175 131 267 208 302 252 103 126 283 545 314 727 25
144 4 272 -86 536 -72 213 -131 331 -212 431 -54 67 -45 58 -148 147 -44 39
-109 95 -144 125 -34 30 -75 63 -90 73 -41 26 -319 140 -440 179 -127 42 -165
46 -328 34 -61 -4 -84 -2 -87 7 -2 6 -6 48 -10 91 -3 44 -8 82 -10 86 -3 4 -9
40 -15 79 -5 39 -16 85 -23 103 l-13 32 -68 -101z"/>
</g>
</svg>
